<svg height="200px" width="200px" version="1.1" id="Layer_1" xmlns="http://www.w3.org/2000/svg" xmlns:xlink="http://www.w3.org/1999/xlink" viewBox="0 0 511.797 511.797" xml:space="preserve" fill="#000000"><g id="SVGRepo_bgCarrier" stroke-width="0"></g><g id="SVGRepo_tracerCarrier" stroke-linecap="round" stroke-linejoin="round"></g><g id="SVGRepo_iconCarrier"> <g transform="translate(0 1)"> <g> <path style="fill:#B3CD4B;" d="M386.068,128.967H125.729C129.2,91.652,165.648,24.831,256.766,24.831 C343.546,24.831,382.597,91.652,386.068,128.967"></path> <path style="fill:#B3CD4B;" d="M56.305,354.594L56.305,354.594c-19.092,0-34.712-15.62-34.712-34.712V198.391 c0-19.092,15.62-34.712,34.712-34.712s34.712,15.62,34.712,34.712v121.492C91.017,338.974,75.397,354.594,56.305,354.594"></path> <path style="fill:#B3CD4B;" d="M455.492,354.594L455.492,354.594c-19.092,0-34.712-15.62-34.712-34.712V198.391 c0-19.092,15.62-34.712,34.712-34.712c19.092,0,34.712,15.62,34.712,34.712v121.492 C490.204,338.974,474.583,354.594,455.492,354.594"></path> <path style="fill:#B3CD4B;" d="M351.356,397.984v86.78c0,14.753-11.281,26.034-26.034,26.034 c-14.753,0-26.034-11.281-26.034-26.034v-86.78h-86.78v86.78c0,14.753-12.149,26.034-26.034,26.034s-26.034-11.281-26.034-26.034 v-86.78h-34.712V163.679h260.339v234.305H351.356z"></path> </g> <g> <path style="fill:#FFFFFF;" d="M229.865,85.577c0-9.546-7.81-17.356-17.356-17.356c-9.546,0-17.356,7.81-17.356,17.356 s7.81,17.356,17.356,17.356C222.055,102.933,229.865,95.123,229.865,85.577"></path> <path style="fill:#FFFFFF;" d="M316.644,85.577c0-9.546-7.81-17.356-17.356-17.356s-17.356,7.81-17.356,17.356 s7.81,17.356,17.356,17.356C308.834,102.933,316.644,95.123,316.644,85.577"></path> </g> <g> <path style="fill:#B3CD4B;" d="M185.607,50.865c-3.471,0-6.075-1.736-7.81-5.207l-16.488-34.712 c-1.736-4.339,0-9.546,4.339-11.281c4.339-1.736,9.546,0,11.281,4.339l16.488,34.712c1.736,4.339,0,9.546-4.339,11.281 C188.211,49.997,187.343,50.865,185.607,50.865z"></path> <path style="fill:#B3CD4B;" d="M325.322,50.865c-0.868,0-2.603,0-3.471-0.868c-4.339-1.736-6.075-6.942-4.339-11.281L334,4.004 c1.736-4.339,6.942-6.075,11.281-4.339c4.339,1.736,6.075,6.942,4.339,11.281l-16.488,34.712 C332.265,49.129,328.794,50.865,325.322,50.865z"></path> </g> </g> </g></svg>